<svg width="178" height="40" viewBox="0 0 178 40" fill="none" xmlns="http://www.w3.org/2000/svg">
<rect width="178" height="40" rx="20" fill="#1BD741"/>
<path d="M64.7578 23.0842L67.0234 13.5139H68.2891L68.5781 15.1077L66.1641 24.8889H64.8047L64.7578 23.0842ZM63.5938 13.5139L65.4688 23.0842L65.3125 24.8889H63.7969L61.2734 13.5139H63.5938ZM70.5703 23.0452L72.4219 13.5139H74.7422L72.2266 24.8889H70.7109L70.5703 23.0452ZM69 13.5139L71.2812 23.1233L71.2188 24.8889H69.8594L67.4297 15.0999L67.7422 13.5139H69ZM78.0703 12.8889V24.8889H75.8203V12.8889H78.0703ZM77.75 20.3655H77.1328C77.138 19.7769 77.2161 19.2353 77.3672 18.7405C77.5182 18.2405 77.7344 17.8082 78.0156 17.4436C78.2969 17.0738 78.6328 16.7874 79.0234 16.5842C79.4193 16.3811 79.8568 16.2795 80.3359 16.2795C80.7526 16.2795 81.1302 16.3394 81.4688 16.4592C81.8125 16.5738 82.1068 16.7613 82.3516 17.0217C82.6016 17.2769 82.7943 17.6129 82.9297 18.0295C83.0651 18.4462 83.1328 18.9514 83.1328 19.5452V24.8889H80.8672V19.5295C80.8672 19.1545 80.8125 18.8603 80.7031 18.6467C80.599 18.428 80.4453 18.2743 80.2422 18.1858C80.0443 18.092 79.7995 18.0452 79.5078 18.0452C79.1849 18.0452 78.9089 18.1051 78.6797 18.2249C78.4557 18.3446 78.276 18.5113 78.1406 18.7249C78.0052 18.9332 77.9062 19.178 77.8438 19.4592C77.7812 19.7405 77.75 20.0426 77.75 20.3655ZM89.4062 22.9827V19.217C89.4062 18.9462 89.362 18.7144 89.2734 18.5217C89.1849 18.3238 89.0469 18.1702 88.8594 18.0608C88.6771 17.9514 88.4401 17.8967 88.1484 17.8967C87.8984 17.8967 87.6823 17.941 87.5 18.0295C87.3177 18.1129 87.1771 18.2353 87.0781 18.3967C86.9792 18.553 86.9297 18.7379 86.9297 18.9514H84.6797C84.6797 18.592 84.763 18.2509 84.9297 17.928C85.0964 17.6051 85.3385 17.3212 85.6562 17.0764C85.974 16.8264 86.3516 16.6311 86.7891 16.4905C87.2318 16.3499 87.7266 16.2795 88.2734 16.2795C88.9297 16.2795 89.513 16.3889 90.0234 16.6077C90.5339 16.8264 90.9349 17.1545 91.2266 17.592C91.5234 18.0295 91.6719 18.5764 91.6719 19.2327V22.8499C91.6719 23.3134 91.7005 23.6936 91.7578 23.9905C91.8151 24.2821 91.8984 24.5374 92.0078 24.7561V24.8889H89.7344C89.625 24.6597 89.5417 24.3733 89.4844 24.0295C89.4323 23.6806 89.4062 23.3316 89.4062 22.9827ZM89.7031 19.7405L89.7188 21.0139H88.4609C88.1641 21.0139 87.9062 21.0478 87.6875 21.1155C87.4688 21.1832 87.2891 21.2795 87.1484 21.4045C87.0078 21.5243 86.9036 21.665 86.8359 21.8264C86.7734 21.9879 86.7422 22.165 86.7422 22.3577C86.7422 22.5504 86.7865 22.7249 86.875 22.8811C86.9635 23.0321 87.0911 23.1519 87.2578 23.2405C87.4245 23.3238 87.6198 23.3655 87.8438 23.3655C88.1823 23.3655 88.4766 23.2978 88.7266 23.1624C88.9766 23.0269 89.1693 22.8603 89.3047 22.6624C89.4453 22.4644 89.5182 22.2769 89.5234 22.0999L90.1172 23.053C90.0339 23.2665 89.9193 23.4879 89.7734 23.717C89.6328 23.9462 89.4531 24.1624 89.2344 24.3655C89.0156 24.5634 88.7526 24.7275 88.4453 24.8577C88.138 24.9827 87.7734 25.0452 87.3516 25.0452C86.8151 25.0452 86.3281 24.9384 85.8906 24.7249C85.4583 24.5061 85.1146 24.2066 84.8594 23.8264C84.6094 23.441 84.4844 23.0035 84.4844 22.5139C84.4844 22.0712 84.5677 21.678 84.7344 21.3342C84.901 20.9905 85.1458 20.7014 85.4688 20.467C85.7969 20.2275 86.2057 20.0478 86.6953 19.928C87.1849 19.803 87.7526 19.7405 88.3984 19.7405H89.7031ZM97.5469 16.4358V18.0295H92.625V16.4358H97.5469ZM93.8438 14.3499H96.0938V22.342C96.0938 22.5868 96.125 22.7743 96.1875 22.9045C96.2552 23.0347 96.3542 23.1259 96.4844 23.178C96.6146 23.2249 96.7786 23.2483 96.9766 23.2483C97.1172 23.2483 97.2422 23.2431 97.3516 23.2327C97.4661 23.217 97.5625 23.2014 97.6406 23.1858L97.6484 24.842C97.4557 24.9045 97.2474 24.954 97.0234 24.9905C96.7995 25.0269 96.5521 25.0452 96.2812 25.0452C95.7865 25.0452 95.3542 24.9644 94.9844 24.803C94.6198 24.6363 94.3385 24.3707 94.1406 24.0061C93.9427 23.6415 93.8438 23.1624 93.8438 22.5686V14.3499ZM103.398 22.553C103.398 22.3915 103.352 22.2457 103.258 22.1155C103.164 21.9853 102.99 21.8655 102.734 21.7561C102.484 21.6415 102.122 21.5374 101.648 21.4436C101.221 21.3499 100.823 21.2327 100.453 21.092C100.089 20.9462 99.7708 20.7717 99.5 20.5686C99.2344 20.3655 99.026 20.1259 98.875 19.8499C98.724 19.5686 98.6484 19.2483 98.6484 18.8889C98.6484 18.5347 98.724 18.2014 98.875 17.8889C99.0312 17.5764 99.2526 17.3004 99.5391 17.0608C99.8307 16.816 100.185 16.6259 100.602 16.4905C101.023 16.3499 101.497 16.2795 102.023 16.2795C102.758 16.2795 103.388 16.3967 103.914 16.6311C104.445 16.8655 104.852 17.1884 105.133 17.5999C105.419 18.0061 105.562 18.4696 105.562 18.9905H103.312C103.312 18.7717 103.266 18.5764 103.172 18.4045C103.083 18.2275 102.943 18.0894 102.75 17.9905C102.562 17.8863 102.318 17.8342 102.016 17.8342C101.766 17.8342 101.549 17.8785 101.367 17.967C101.185 18.0504 101.044 18.165 100.945 18.3108C100.852 18.4514 100.805 18.6077 100.805 18.7795C100.805 18.9097 100.831 19.0269 100.883 19.1311C100.94 19.2301 101.031 19.3212 101.156 19.4045C101.281 19.4879 101.443 19.566 101.641 19.6389C101.844 19.7066 102.094 19.7691 102.391 19.8264C103 19.9514 103.544 20.1155 104.023 20.3186C104.503 20.5165 104.883 20.7874 105.164 21.1311C105.445 21.4696 105.586 21.915 105.586 22.467C105.586 22.842 105.503 23.1858 105.336 23.4983C105.169 23.8108 104.93 24.0842 104.617 24.3186C104.305 24.5478 103.93 24.7275 103.492 24.8577C103.06 24.9827 102.573 25.0452 102.031 25.0452C101.245 25.0452 100.578 24.9045 100.031 24.6233C99.4896 24.342 99.0781 23.9853 98.7969 23.553C98.5208 23.1155 98.3828 22.6676 98.3828 22.2092H100.516C100.526 22.5165 100.604 22.7639 100.75 22.9514C100.901 23.1389 101.091 23.2743 101.32 23.3577C101.555 23.441 101.807 23.4827 102.078 23.4827C102.37 23.4827 102.612 23.4436 102.805 23.3655C102.997 23.2821 103.143 23.1728 103.242 23.0374C103.346 22.8967 103.398 22.7353 103.398 22.553ZM111.812 15.4592L108.719 24.8889H106.227L110.453 13.5139H112.039L111.812 15.4592ZM114.383 24.8889L111.281 15.4592L111.031 13.5139H112.633L116.883 24.8889H114.383ZM114.242 20.6545V22.4905H108.234V20.6545H114.242ZM119.797 18.0608V28.1389H117.547V16.4358H119.633L119.797 18.0608ZM125.148 20.5686V20.7327C125.148 21.3472 125.076 21.9176 124.93 22.4436C124.789 22.9696 124.581 23.428 124.305 23.8186C124.029 24.204 123.685 24.5061 123.273 24.7249C122.867 24.9384 122.398 25.0452 121.867 25.0452C121.352 25.0452 120.904 24.941 120.523 24.7327C120.143 24.5243 119.823 24.2327 119.562 23.8577C119.307 23.4775 119.102 23.0374 118.945 22.5374C118.789 22.0374 118.669 21.5009 118.586 20.928V20.4983C118.669 19.8837 118.789 19.3212 118.945 18.8108C119.102 18.2952 119.307 17.8499 119.562 17.4749C119.823 17.0946 120.141 16.8004 120.516 16.592C120.896 16.3837 121.341 16.2795 121.852 16.2795C122.388 16.2795 122.859 16.3811 123.266 16.5842C123.677 16.7874 124.021 17.079 124.297 17.4592C124.578 17.8394 124.789 18.2926 124.93 18.8186C125.076 19.3446 125.148 19.928 125.148 20.5686ZM122.891 20.7327V20.5686C122.891 20.2092 122.859 19.8785 122.797 19.5764C122.74 19.2691 122.646 19.0009 122.516 18.7717C122.391 18.5426 122.224 18.3655 122.016 18.2405C121.812 18.1103 121.565 18.0452 121.273 18.0452C120.966 18.0452 120.703 18.0946 120.484 18.1936C120.271 18.2926 120.096 18.4358 119.961 18.6233C119.826 18.8108 119.724 19.0347 119.656 19.2952C119.589 19.5556 119.547 19.8499 119.531 20.178V21.2639C119.557 21.6493 119.63 21.9957 119.75 22.303C119.87 22.6051 120.055 22.8446 120.305 23.0217C120.555 23.1988 120.883 23.2874 121.289 23.2874C121.586 23.2874 121.836 23.2222 122.039 23.092C122.242 22.9566 122.406 22.7717 122.531 22.5374C122.661 22.303 122.753 22.0321 122.805 21.7249C122.862 21.4176 122.891 21.0868 122.891 20.7327ZM128.797 18.0608V28.1389H126.547V16.4358H128.633L128.797 18.0608ZM134.148 20.5686V20.7327C134.148 21.3472 134.076 21.9176 133.93 22.4436C133.789 22.9696 133.581 23.428 133.305 23.8186C133.029 24.204 132.685 24.5061 132.273 24.7249C131.867 24.9384 131.398 25.0452 130.867 25.0452C130.352 25.0452 129.904 24.941 129.523 24.7327C129.143 24.5243 128.823 24.2327 128.562 23.8577C128.307 23.4775 128.102 23.0374 127.945 22.5374C127.789 22.0374 127.669 21.5009 127.586 20.928V20.4983C127.669 19.8837 127.789 19.3212 127.945 18.8108C128.102 18.2952 128.307 17.8499 128.562 17.4749C128.823 17.0946 129.141 16.8004 129.516 16.592C129.896 16.3837 130.341 16.2795 130.852 16.2795C131.388 16.2795 131.859 16.3811 132.266 16.5842C132.677 16.7874 133.021 17.079 133.297 17.4592C133.578 17.8394 133.789 18.2926 133.93 18.8186C134.076 19.3446 134.148 19.928 134.148 20.5686ZM131.891 20.7327V20.5686C131.891 20.2092 131.859 19.8785 131.797 19.5764C131.74 19.2691 131.646 19.0009 131.516 18.7717C131.391 18.5426 131.224 18.3655 131.016 18.2405C130.812 18.1103 130.565 18.0452 130.273 18.0452C129.966 18.0452 129.703 18.0946 129.484 18.1936C129.271 18.2926 129.096 18.4358 128.961 18.6233C128.826 18.8108 128.724 19.0347 128.656 19.2952C128.589 19.5556 128.547 19.8499 128.531 20.178V21.2639C128.557 21.6493 128.63 21.9957 128.75 22.303C128.87 22.6051 129.055 22.8446 129.305 23.0217C129.555 23.1988 129.883 23.2874 130.289 23.2874C130.586 23.2874 130.836 23.2222 131.039 23.092C131.242 22.9566 131.406 22.7717 131.531 22.5374C131.661 22.303 131.753 22.0321 131.805 21.7249C131.862 21.4176 131.891 21.0868 131.891 20.7327Z" fill="white"/>
<path d="M51.8337 20.6666C51.667 20.5833 50.5837 20.0833 50.417 20C50.2503 19.9166 50.0837 19.9166 49.917 20.0833C49.7503 20.25 49.417 20.75 49.2503 20.9166C49.167 21.0833 49.0003 21.0833 48.8337 21C48.2503 20.75 47.667 20.4166 47.167 20C46.7503 19.5833 46.3337 19.0833 46.0003 18.5833C45.917 18.4166 46.0003 18.25 46.0837 18.1666C46.167 18.0833 46.2503 17.9166 46.417 17.8333C46.5003 17.75 46.5837 17.5833 46.5837 17.5C46.667 17.4166 46.667 17.25 46.5837 17.1666C46.5003 17.0833 46.0837 16.0833 45.917 15.6666C45.8337 15.0833 45.667 15.0833 45.5003 15.0833H45.0837C44.917 15.0833 44.667 15.25 44.5837 15.3333C44.0837 15.8333 43.8337 16.4166 43.8337 17.0833C43.917 17.8333 44.167 18.5833 44.667 19.25C45.5837 20.5833 46.7503 21.6666 48.167 22.3333C48.5837 22.5 48.917 22.6666 49.3337 22.75C49.7503 22.9166 50.167 22.9166 50.667 22.8333C51.2503 22.75 51.7503 22.3333 52.0837 21.8333C52.2503 21.5 52.2503 21.1666 52.167 20.8333L51.8337 20.6666ZM53.917 13.0833C50.667 9.83331 45.417 9.83331 42.167 13.0833C39.5003 15.75 39.0003 19.8333 40.8337 23.0833L39.667 27.3333L44.0837 26.1666C45.3337 26.8333 46.667 27.1666 48.0003 27.1666C52.5837 27.1666 56.2503 23.5 56.2503 18.9166C56.3337 16.75 55.417 14.6666 53.917 13.0833ZM51.667 24.75C50.5837 25.4166 49.3337 25.8333 48.0003 25.8333C46.7503 25.8333 45.5837 25.5 44.5003 24.9166L44.2503 24.75L41.667 25.4166L42.3337 22.9166L42.167 22.6666C40.167 19.3333 41.167 15.1666 44.417 13.0833C47.667 11 51.8337 12.0833 53.8337 15.25C55.8337 18.5 54.917 22.75 51.667 24.75Z" fill="white"/>
</svg>
